<svg width="24" height="27" viewBox="0 0 24 27" fill="none" xmlns="http://www.w3.org/2000/svg">
<path d="M22.5 0H19.5C19.1022 0 18.7206 0.158035 18.4393 0.43934C18.158 0.720644 18 1.10218 18 1.5V26.988H24V1.5C24 1.10218 23.842 0.720644 23.5607 0.43934C23.2794 0.158035 22.8978 0 22.5 0ZM13.5 9H10.5C10.1022 9 9.72064 9.15804 9.43934 9.43934C9.15804 9.72064 9 10.1022 9 10.5V26.988H15V10.5C15 10.1022 14.842 9.72064 14.5607 9.43934C14.2794 9.15804 13.8978 9 13.5 9ZM4.5 18H1.5C1.10218 18 0.720644 18.158 0.43934 18.4393C0.158035 18.7206 0 19.1022 0 19.5V26.988H6V19.5C6 19.1022 5.84196 18.7206 5.56066 18.4393C5.27936 18.158 4.89782 18 4.5 18Z" fill="#2D3E50"/>
</svg>
