<svg width="30" height="18" viewBox="0 0 30 18" fill="none" xmlns="http://www.w3.org/2000/svg">
<path d="M0 14.8753L3 14.8771C3.83203 14.8771 4.5 14.2143 4.5 13.3914V3.01885H0V14.8753ZM2.25 11.9158C2.66016 11.9158 3 12.246 3 12.6575C3 13.0631 2.66016 13.3993 2.25 13.3993C1.83984 13.3993 1.5 13.0616 1.5 12.658C1.5 12.2452 1.83984 11.9158 2.25 11.9158ZM16.35 0.0361816C15.9778 0.0361816 15.6159 0.173904 15.3412 0.42249L10.7297 4.596C10.725 4.60527 10.725 4.61455 10.7156 4.61455C9.9375 5.33818 9.95156 6.49321 10.6172 7.21221C11.2148 7.81987 12.4631 8.02954 13.2483 7.33977C13.2563 7.33281 13.2609 7.33281 13.2656 7.32817L17.01 3.9373C17.3147 3.66497 17.7952 3.68236 18.0703 3.98369C18.3516 4.28502 18.3281 4.75464 18.0234 5.03296L16.7991 6.14021L23.625 11.6189C23.7598 11.7347 23.8828 11.8507 23.9941 11.9781V2.96318C22.0732 1.06318 19.4716 0 16.7566 0L16.35 0.0361816ZM15.6844 7.1519L14.2781 8.42708C12.8836 9.68462 10.7508 9.56309 9.50625 8.22432C8.25 6.86431 8.34844 4.75371 9.71719 3.51055L13.5516 0.0361816H13.2422C10.5328 0.0361816 7.92656 1.10679 6.00937 3.00029L6 13.3863L6.85547 13.388L11.0977 17.1834C12.3867 18.221 14.2734 18.0239 15.3164 16.7545L16.1658 17.4614C16.9102 18.0227 18.0117 17.9485 18.6211 17.2123L20.092 15.4217L20.3439 15.6304C20.9885 16.1406 21.9321 16.0479 22.4533 15.4101L22.9004 14.8637C23.4217 14.2259 23.324 13.2968 22.6804 12.7795L15.6844 7.1519ZM25.5 3.02349V13.3956C25.5 14.2129 26.168 14.8823 26.9578 14.8823L30 14.8799V3.00957L25.5 3.02349ZM27.75 13.3956C27.3398 13.3956 27 13.0594 27 12.6538C27 12.2422 27.3398 11.9121 27.75 11.9121C28.1602 11.9121 28.5 12.2452 28.5 12.658C28.5 13.0616 28.1625 13.3956 27.75 13.3956Z" fill="#007C8E"/>
</svg>
