<svg width="20" height="20" viewBox="0 0 20 20" fill="none" xmlns="http://www.w3.org/2000/svg">
<path fill-rule="evenodd" clip-rule="evenodd" d="M14.325 12.8981L19.7048 18.2779C19.8939 18.4671 20 18.7237 20 18.9912C19.9999 19.2587 19.8935 19.5152 19.7043 19.7043C19.5151 19.8934 19.2585 19.9995 18.991 19.9995C18.7235 19.9994 18.4669 19.893 18.2779 19.7038L12.8981 14.324C11.2899 15.5697 9.26757 16.1558 7.24252 15.9633C5.21747 15.7708 3.34181 14.8141 1.99713 13.2877C0.652445 11.7614 -0.0602621 9.78008 0.00399613 7.74691C0.0682544 5.71374 0.904651 3.78142 2.34304 2.34304C3.78142 0.904651 5.71374 0.0682544 7.74691 0.00399613C9.78008 -0.0602621 11.7614 0.652445 13.2877 1.99713C14.814 3.34181 15.7708 5.21747 15.9633 7.24252C16.1558 9.26757 15.5697 11.2899 14.324 12.8981H14.325ZM8.00035 13.9991C9.59157 13.9991 11.1176 13.367 12.2428 12.2418C13.368 11.1166 14.0001 9.59058 14.0001 7.99935C14.0001 6.40813 13.368 4.88208 12.2428 3.75692C11.1176 2.63176 9.59157 1.99965 8.00035 1.99965C6.40913 1.99965 4.88308 2.63176 3.75792 3.75692C2.63276 4.88208 2.00065 6.40813 2.00065 7.99935C2.00065 9.59058 2.63276 11.1166 3.75792 12.2418C4.88308 13.367 6.40913 13.9991 8.00035 13.9991Z" fill="#007C8E"/>
</svg>
