<svg width="18" height="11" viewBox="0 0 18 11" fill="none" xmlns="http://www.w3.org/2000/svg">
<path fill-rule="evenodd" clip-rule="evenodd" d="M8.75068 2.28448C11.2898 2.28457 13.7319 3.13869 15.5721 4.67028C15.7107 4.78852 15.9322 4.78703 16.0687 4.66693L17.3933 3.4966C17.4624 3.43569 17.501 3.35318 17.5004 3.26733C17.4998 3.18148 17.4602 3.09937 17.3903 3.03917C12.5603 -1.01306 4.94034 -1.01306 0.110318 3.03917C0.0403515 3.09933 0.000653501 3.18141 8.33419e-06 3.26726C-0.000636833 3.35311 0.037824 3.43565 0.10688 3.4966L1.43191 4.66693C1.5683 4.78721 1.78997 4.7887 1.92846 4.67028C3.76892 3.13858 6.21127 2.28447 8.75068 2.28448ZM8.75068 6.09206C10.1458 6.09199 11.4911 6.54594 12.5252 7.36571C12.6651 7.48206 12.8854 7.47954 13.0218 7.36003L14.3449 6.1897C14.4146 6.12831 14.4532 6.04504 14.4522 5.9585C14.4512 5.87196 14.4106 5.78939 14.3395 5.72926C11.1904 3.16485 6.31361 3.16485 3.16449 5.72926C3.09335 5.78939 3.05277 5.87201 3.05184 5.95857C3.0509 6.04513 3.0897 6.1284 3.15952 6.1897L4.48226 7.36003C4.6186 7.47954 4.83894 7.48206 4.97881 7.36571C6.01225 6.54648 7.3565 6.09257 8.75068 6.09206ZM11.4011 8.6539C11.4031 8.74068 11.3642 8.82434 11.2934 8.88514L9.00468 10.9071C8.93759 10.9666 8.84612 11 8.75068 11C8.65524 11 8.56377 10.9666 8.49667 10.9071L6.20758 8.88514C6.13686 8.8243 6.09796 8.7406 6.10006 8.65383C6.10215 8.56705 6.14506 8.48487 6.21865 8.4267C7.68031 7.34443 9.82105 7.34443 11.2827 8.4267C11.3562 8.48492 11.3991 8.56712 11.4011 8.6539Z" fill="white"/>
</svg>
