<svg width="23" height="23" viewBox="0 0 23 23" fill="none" xmlns="http://www.w3.org/2000/svg">
<path d="M11.6605 1.64103C11.5432 1.57785 11.412 1.54478 11.2787 1.54478C11.1454 1.54478 11.0142 1.57785 10.8968 1.64103L1.69502 6.5956C1.18909 6.8679 0.776618 7.26265 0.484983 7.73314L1.15526 8.06827L11.2787 12.7425L21.3892 8.07633L22.0579 7.71219C21.7619 7.2439 21.3501 6.85987 20.8623 6.59721L11.6605 1.64103ZM22.5525 9.27509L22.1368 9.50067C22.121 9.5098 22.1049 9.51839 22.0885 9.52645L11.6154 14.3602C11.5096 14.409 11.3944 14.4343 11.2779 14.4343C11.1613 14.4343 11.0461 14.409 10.9403 14.3602L0.467259 9.52645L0.444702 9.51517L0.00322263 9.29443C0.00116303 9.34059 8.84797e-05 9.38679 0 9.433V18.4624C0 19.5307 0.424388 20.5553 1.1798 21.3107C1.93522 22.0661 2.95978 22.4905 4.0281 22.4905H18.5293C19.5976 22.4905 20.6221 22.0661 21.3776 21.3107C22.133 20.5553 22.5574 19.5307 22.5574 18.4624V9.433C22.5574 9.37983 22.5574 9.32826 22.5541 9.27509H22.5525Z" fill="#007C8E"/>
<circle cx="20.543" cy="2.45714" r="2.45714" fill="#007C8E"/>
</svg>
