<svg width="78" height="82" viewBox="0 0 78 82" fill="none" xmlns="http://www.w3.org/2000/svg">
<path d="M59.8904 26.9993V17.2344C61.1754 16.6314 62.2635 15.6742 63.0278 14.4743C63.7922 13.2745 64.2015 11.8813 64.208 10.4569V10.2327C64.208 6.07981 60.8554 2.71321 56.7197 2.71321H56.4963C54.5103 2.71321 52.6056 3.50544 51.2013 4.91562C49.7969 6.32579 49.008 8.2384 49.008 10.2327V10.4569C49.0145 11.8813 49.4238 13.2745 50.1882 14.4743C50.9526 15.6742 52.0406 16.6314 53.3256 17.2344V26.9993C49.6323 27.5671 46.154 29.1048 43.2428 31.4567L16.5731 10.5981C16.7633 9.90877 16.8626 9.20001 16.8736 8.48848C16.8769 6.81267 16.3851 5.17353 15.4606 3.7784C14.536 2.38326 13.2202 1.29481 11.6795 0.650726C10.1388 0.00663882 8.44245 -0.164149 6.80508 0.159965C5.16771 0.484079 3.66285 1.28853 2.48084 2.47158C1.29884 3.65462 0.492801 5.16309 0.164677 6.8062C-0.163447 8.4493 0.00110382 10.1532 0.637486 11.7024C1.27387 13.2516 2.35349 14.5765 3.73982 15.5094C5.12616 16.4424 6.7569 16.9416 8.42578 16.9437C9.88581 16.9368 11.3185 16.5454 12.5808 15.8086L38.8424 36.3294C36.4832 39.9082 35.2525 44.1178 35.3105 48.4093C35.3685 52.7008 36.7127 56.8752 39.1678 60.3884L31.1804 68.4118C30.5347 68.2044 29.862 68.0943 29.1842 68.0851C27.8143 68.0862 26.4755 68.495 25.3369 69.2599C24.1984 70.0248 23.3111 71.1115 22.7874 72.3826C22.2637 73.6537 22.1269 75.0521 22.3945 76.4012C22.662 77.7503 23.3218 78.9895 24.2904 79.9622C25.2591 80.9349 26.4931 81.5974 27.8366 81.866C29.1802 82.1347 30.5728 81.9974 31.8387 81.4715C33.1045 80.9455 34.1867 80.0546 34.9484 78.9113C35.7102 77.768 36.1173 76.4237 36.1184 75.0481C36.1095 74.3674 35.9999 73.6919 35.7931 73.0436L43.695 65.1061C46.2717 67.0981 49.2684 68.4714 52.4554 69.1208C55.6423 69.7703 58.9351 69.6786 62.0813 68.8528C65.2275 68.027 68.1438 66.489 70.6066 64.3566C73.0695 62.2243 75.0136 59.5541 76.29 56.5507C77.5664 53.5474 78.1413 50.2904 77.9706 47.0295C77.7999 43.7686 76.8882 40.5901 75.3052 37.7377C73.7222 34.8852 71.51 32.4345 68.8381 30.5731C66.1662 28.7118 63.1055 27.4893 59.8904 26.9993ZM56.6149 59.1149C55.1545 59.1552 53.7009 58.9012 52.34 58.3679C50.979 57.8346 49.7383 57.0328 48.6912 56.0098C47.644 54.9869 46.8117 53.7635 46.2434 52.4121C45.675 51.0607 45.3822 49.6086 45.3822 48.1416C45.3822 46.6746 45.675 45.2225 46.2434 43.871C46.8117 42.5196 47.644 41.2963 48.6912 40.2733C49.7383 39.2504 50.979 38.4485 52.34 37.9152C53.7009 37.3819 55.1545 37.1279 56.6149 37.1683C59.4453 37.2678 62.1268 38.4665 64.0946 40.5118C66.0624 42.5572 67.1629 45.2895 67.1643 48.1335C67.1657 50.9774 66.068 53.7109 64.1022 55.7582C62.1365 57.8055 59.4562 59.0069 56.6259 59.1093" fill="white"/>
</svg>
