<svg width="23" height="23" viewBox="0 0 23 23" fill="none" xmlns="http://www.w3.org/2000/svg">
<path d="M20.7461 15.6841L17.4941 15.3128C16.7131 15.2232 15.9449 15.492 15.3943 16.0426L13.0385 18.3984C9.41516 16.5547 6.44478 13.5971 4.6011 9.961L6.96972 7.59238C7.52026 7.04184 7.78913 6.27364 7.69951 5.49263L7.32821 2.26619C7.17457 0.973054 6.08629 0 4.78035 0H2.56537C1.11859 0 -0.0849201 1.20351 0.00470328 2.65029C0.68328 13.5843 9.42796 22.3162 20.3492 22.9948C21.796 23.0844 22.9995 21.8809 22.9995 20.4341V18.2192C23.0123 16.926 22.0393 15.8377 20.7461 15.6841Z" fill="#2D3E50"/>
</svg>
