<svg width="27" height="22" viewBox="0 0 27 22" fill="none" xmlns="http://www.w3.org/2000/svg">
<path d="M3.66614 12.4832V16.0264C3.66614 16.9468 4.17051 17.8043 4.9775 18.2456L11.2821 21.6879C12.0387 22.104 12.9465 22.104 13.7031 21.6879L20.0077 18.2456C20.8147 17.8043 21.3191 16.9468 21.3191 16.0264V12.4832L13.7031 16.6442C12.9465 17.0603 12.0387 17.0603 11.2821 16.6442L3.66614 12.4832ZM11.2821 0.302622L0.652529 6.10288C-0.21751 6.58203 -0.21751 7.84295 0.652529 8.3221L11.2821 14.1224C12.0387 14.5385 12.9465 14.5385 13.7031 14.1224L23.8409 8.5869V16.039C23.8409 16.7325 24.4084 17.2999 25.1019 17.2999C25.7954 17.2999 26.3628 16.7325 26.3628 16.039V7.95644C26.3628 7.48989 26.1106 7.07379 25.7071 6.84682L13.7031 0.302622C12.9465 -0.100874 12.0387 -0.100874 11.2821 0.302622Z" fill="#2D3E50"/>
</svg>
