<svg width="20" height="11" viewBox="0 0 20 11" fill="none" xmlns="http://www.w3.org/2000/svg">
<path fill-rule="evenodd" clip-rule="evenodd" d="M18.8234 0H17.6469C16.9972 0 16.4704 0.461495 16.4704 1.03078V9.96418C16.4704 10.5335 16.9972 10.995 17.6469 10.995H18.8234C19.4731 10.995 19.9998 10.5335 19.9998 9.96418V1.03078C19.9998 0.461495 19.4731 0 18.8234 0ZM12.1568 2.40515H13.3332C13.983 2.40515 14.5097 2.86664 14.5097 3.43593V9.96418C14.5097 10.5335 13.983 10.995 13.3332 10.995H12.1568C11.507 10.995 10.9803 10.5335 10.9803 9.96418V3.43593C10.9803 2.86664 11.507 2.40515 12.1568 2.40515ZM7.84307 4.81029H6.66661C6.01688 4.81029 5.49016 5.27179 5.49016 5.84107V9.96418C5.49016 10.5335 6.01688 10.995 6.66661 10.995H7.84307C8.49281 10.995 9.01952 10.5335 9.01952 9.96418V5.84107C9.01952 5.27179 8.49281 4.81029 7.84307 4.81029ZM2.35293 6.87185H1.17646C0.526721 6.87185 0 7.33334 0 7.90263V9.96418C0 10.5335 0.526721 10.995 1.17646 10.995H2.35293C3.00267 10.995 3.52939 10.5335 3.52939 9.96418V7.90263C3.52939 7.33334 3.00267 6.87185 2.35293 6.87185Z" fill="black"/>
</svg>
