<svg width="17" height="14" viewBox="0 0 17 14" fill="none" xmlns="http://www.w3.org/2000/svg">
<path d="M15.2999 0H1.69999C0.764996 0 0.00849995 0.764996 0.00849995 1.69999L0 11.8999C0 12.8349 0.764996 13.5999 1.69999 13.5999H15.2999C16.2349 13.5999 16.9999 12.8349 16.9999 11.8999V1.69999C16.9999 0.764996 16.2349 0 15.2999 0ZM14.9599 3.61248L8.95046 7.36946C8.67846 7.53946 8.32146 7.53946 8.04946 7.36946L2.03999 3.61248C1.82749 3.47648 1.69999 3.24698 1.69999 3.00049C1.69999 2.43099 2.32049 2.09099 2.80499 2.38849L8.49996 5.94997L14.1949 2.38849C14.6794 2.09099 15.2999 2.43099 15.2999 3.00049C15.2999 3.24698 15.1724 3.47648 14.9599 3.61248Z" fill="#007C8F"/>
</svg>
