<svg width="30" height="30" viewBox="0 0 30 30" fill="none" xmlns="http://www.w3.org/2000/svg">
<g clip-path="url(#clip0_4029_1149)">
<path d="M8 15L14 20L22 10M15 29C13.1615 29 11.341 28.6379 9.64243 27.9343C7.94387 27.2307 6.40053 26.1995 5.1005 24.8995C3.80048 23.5995 2.76925 22.0561 2.06569 20.3576C1.36212 18.659 1 16.8385 1 15C1 13.1615 1.36212 11.341 2.06569 9.64243C2.76925 7.94387 3.80048 6.40053 5.1005 5.1005C6.40053 3.80048 7.94387 2.76925 9.64243 2.06569C11.341 1.36212 13.1615 1 15 1C18.713 1 22.274 2.475 24.8995 5.10051C27.525 7.72601 29 11.287 29 15C29 18.713 27.525 22.274 24.8995 24.8995C22.274 27.525 18.713 29 15 29Z" stroke="#3B5169"/>
<path d="M8 15L14 20L22 10" stroke="#849EBA"/>
</g>
<defs>
<clipPath id="clip0_4029_1149">
<rect width="30" height="30" fill="white"/>
</clipPath>
</defs>
</svg>
