<svg width="23" height="23" viewBox="0 0 23 23" fill="none" xmlns="http://www.w3.org/2000/svg">
<path d="M11.6608 1.64107C11.5434 1.57789 11.4122 1.54482 11.2789 1.54482C11.1456 1.54482 11.0144 1.57789 10.897 1.64107L1.69506 6.59574C1.18912 6.86805 0.776634 7.26281 0.484994 7.7333L1.15528 8.06845L11.2789 12.7428L21.3897 8.07651L22.0583 7.71236C21.7623 7.24406 21.3506 6.86002 20.8628 6.59735L11.6608 1.64107ZM22.553 9.27529L22.1373 9.50087C22.1215 9.51 22.1054 9.5186 22.089 9.52665L11.6157 14.3605C11.5098 14.4093 11.3947 14.4346 11.2781 14.4346C11.1616 14.4346 11.0464 14.4093 10.9406 14.3605L0.46727 9.52665L0.444712 9.51537L0.0032227 9.29463C0.00116306 9.34079 8.84816e-05 9.38699 0 9.4332V18.4628C0 19.5311 0.424397 20.5557 1.17983 21.3112C1.93526 22.0666 2.95984 22.491 4.02819 22.491H18.5297C19.598 22.491 20.6226 22.0666 21.378 21.3112C22.1334 20.5557 22.5578 19.5311 22.5578 18.4628V9.4332C22.5578 9.38003 22.5578 9.32847 22.5546 9.27529H22.553Z" fill="#7D98B6"/>
<circle cx="20.5429" cy="2.45719" r="2.45719" fill="#7D98B6"/>
</svg>
