<svg width="13" height="8" viewBox="0 0 13 8" fill="none" xmlns="http://www.w3.org/2000/svg">
<path d="M6.4898 7.00125C6.27322 7.00171 6.06333 6.92033 5.89656 6.77125L0.334863 1.77125C0.145564 1.60151 0.0265212 1.3576 0.00392239 1.09318C-0.0186764 0.82875 0.05702 0.565469 0.214359 0.361252C0.371698 0.157035 0.597792 0.0286112 0.842901 0.00423152C1.08801 -0.0201482 1.33206 0.0615132 1.52136 0.231252L6.4898 4.71125L11.4583 0.391253C11.5531 0.308187 11.6622 0.246155 11.7793 0.208723C11.8964 0.171291 12.0192 0.159198 12.1407 0.173137C12.2621 0.187076 12.3798 0.226773 12.487 0.289947C12.5942 0.35312 12.6888 0.438526 12.7653 0.541252C12.8501 0.644074 12.9144 0.7647 12.9541 0.895574C12.9938 1.02645 13.0079 1.16475 12.9958 1.30181C12.9836 1.43887 12.9453 1.57175 12.8833 1.6921C12.8213 1.81246 12.7369 1.91771 12.6355 2.00125L7.07378 6.83125C6.90222 6.95677 6.69661 7.01662 6.4898 7.00125Z" fill="#007C8E"/>
</svg>
