<svg width="22" height="16" viewBox="0 0 22 16" fill="none" xmlns="http://www.w3.org/2000/svg">
<path d="M4 10C4.28333 10 4.52067 9.904 4.712 9.712C4.904 9.52067 5 9.28333 5 9V7H7C7.28333 7 7.52067 6.904 7.712 6.712C7.904 6.52067 8 6.28333 8 6C8 5.71667 7.904 5.479 7.712 5.287C7.52067 5.09567 7.28333 5 7 5H5V3C5 2.71667 4.904 2.479 4.712 2.287C4.52067 2.09567 4.28333 2 4 2C3.71667 2 3.47933 2.09567 3.288 2.287C3.096 2.479 3 2.71667 3 3V5H1C0.716667 5 0.479334 5.09567 0.288 5.287C0.0960007 5.479 0 5.71667 0 6C0 6.28333 0.0960007 6.52067 0.288 6.712C0.479334 6.904 0.716667 7 1 7H3V9C3 9.28333 3.096 9.52067 3.288 9.712C3.47933 9.904 3.71667 10 4 10ZM14 8C15.1 8 16.0417 7.60833 16.825 6.825C17.6083 6.04167 18 5.1 18 4C18 2.9 17.6083 1.95833 16.825 1.175C16.0417 0.391667 15.1 0 14 0C12.9 0 11.9583 0.391667 11.175 1.175C10.3917 1.95833 10 2.9 10 4C10 5.1 10.3917 6.04167 11.175 6.825C11.9583 7.60833 12.9 8 14 8ZM21 16C21.2833 16 21.5207 15.904 21.712 15.712C21.904 15.5207 22 15.2833 22 15V13.2C22 12.6333 21.854 12.1123 21.562 11.637C21.2707 11.1623 20.8833 10.8 20.4 10.55C19.3667 10.0333 18.3167 9.64567 17.25 9.387C16.1833 9.129 15.1 9 14 9C12.9 9 11.8167 9.129 10.75 9.387C9.68333 9.64567 8.63333 10.0333 7.6 10.55C7.11667 10.8 6.72933 11.1623 6.438 11.637C6.146 12.1123 6 12.6333 6 13.2V15C6 15.2833 6.096 15.5207 6.288 15.712C6.47933 15.904 6.71667 16 7 16H21Z" fill="white"/>
</svg>
