<svg width="61" height="55" viewBox="0 0 61 55" fill="none" xmlns="http://www.w3.org/2000/svg">
<g filter="url(#filter0_d_4052_13647)">
<path d="M52.4475 0H8.34686C4.39723 0 1.19541 3.21187 1.19541 7.17391V45.4348C1.19541 49.3968 4.39723 52.6087 8.34686 52.6087H52.4475C56.3971 52.6087 59.5989 49.3968 59.5989 45.4348V7.17391C59.5989 3.21187 56.3971 0 52.4475 0Z" fill="black"/>
</g>
<path d="M52.4475 0H8.34686C4.39723 0 1.19541 3.21187 1.19541 7.17391V45.4348C1.19541 49.3968 4.39723 52.6087 8.34686 52.6087H52.4475C56.3971 52.6087 59.5989 49.3968 59.5989 45.4348V7.17391C59.5989 3.21187 56.3971 0 52.4475 0Z" fill="#1A73E9"/>
<g clip-path="url(#clip0_4052_13647)">
<path d="M27.418 31.2902L22.4477 26.3043L20.7552 27.9902L27.418 34.6739L41.7209 20.3261L40.0403 18.6402L27.418 31.2902Z" fill="white"/>
</g>
<defs>
<filter id="filter0_d_4052_13647" x="-0.000240697" y="0" width="60.7946" height="55" filterUnits="userSpaceOnUse" color-interpolation-filters="sRGB">
<feFlood flood-opacity="0" result="BackgroundImageFix"/>
<feColorMatrix in="SourceAlpha" type="matrix" values="0 0 0 0 0 0 0 0 0 0 0 0 0 0 0 0 0 0 127 0" result="hardAlpha"/>
<feOffset dy="1.19262"/>
<feGaussianBlur stdDeviation="0.596311"/>
<feColorMatrix type="matrix" values="0 0 0 0 0 0 0 0 0 0 0 0 0 0 0 0 0 0 0.36 0"/>
<feBlend mode="normal" in2="BackgroundImageFix" result="effect1_dropShadow_4052_13647"/>
<feBlend mode="normal" in="SourceGraphic" in2="effect1_dropShadow_4052_13647" result="shape"/>
</filter>
<clipPath id="clip0_4052_13647">
<rect width="28.5333" height="28.623" fill="white" transform="translate(16.6902 11.9565) scale(1.00254)"/>
</clipPath>
</defs>
</svg>
