<svg width="19" height="23" viewBox="0 0 19 23" fill="none" xmlns="http://www.w3.org/2000/svg">
<path d="M18.715 16.3552C17.5408 15.032 16.1158 13.9761 14.5298 13.2539C12.9439 12.5317 11.2313 12.1588 9.5 12.1588C7.76868 12.1588 6.05611 12.5317 4.47016 13.2539C2.88421 13.9761 1.45924 15.032 0.285 16.3552C0.103708 16.5637 0.00229629 16.8341 0 17.1152V21.6752C0.00384271 21.9749 0.121024 22.261 0.326178 22.4715C0.531332 22.682 0.80795 22.8 1.09615 22.8H17.9038C18.1946 22.8 18.4734 22.6799 18.6789 22.4661C18.8845 22.2523 19 21.9623 19 21.66V17.1C18.9942 16.8242 18.893 16.5598 18.715 16.3552Z" fill="#7D98B6"/>
<path d="M9.50023 10.64C12.3254 10.64 14.6156 8.25815 14.6156 5.32C14.6156 2.38184 12.3254 0 9.50023 0C6.67508 0 4.38484 2.38184 4.38484 5.32C4.38484 8.25815 6.67508 10.64 9.50023 10.64Z" fill="#7D98B6"/>
</svg>
