<svg width="23" height="23" viewBox="0 0 23 23" fill="none" xmlns="http://www.w3.org/2000/svg">
<path d="M20.4444 0H2.55556C1.14617 0 0 1.14617 0 2.55556V20.4444C0 21.8538 1.14617 23 2.55556 23H12.7778C12.9456 23.0002 13.1118 22.9673 13.2669 22.903C13.4219 22.8388 13.5627 22.7445 13.6812 22.6256L22.6256 13.6812C22.7307 13.5722 22.8155 13.4455 22.8761 13.3068C22.8939 13.2684 22.9042 13.2288 22.9182 13.1879C22.9546 13.081 22.9765 12.9697 22.9834 12.857C22.9859 12.8302 23 12.8046 23 12.7778V2.55556C23 1.14617 21.8538 0 20.4444 0ZM2.55556 2.55556H20.4444V11.5H12.7778C12.4389 11.5 12.1139 11.6346 11.8743 11.8743C11.6346 12.1139 11.5 12.4389 11.5 12.7778V20.4444H2.55556V2.55556ZM14.0556 18.6377V14.0556H18.6377L14.0556 18.6377Z" fill="#2D3E50"/>
</svg>
