<svg width="15" height="15" viewBox="0 0 15 15" fill="none" xmlns="http://www.w3.org/2000/svg">
<path d="M13.5304 10.229L11.4094 9.98682C10.9001 9.92837 10.399 10.1037 10.04 10.4628L8.50356 11.9992C6.14045 10.7968 4.20321 8.8679 3.00078 6.49644L4.54557 4.95166C4.90463 4.5926 5.07998 4.09159 5.02153 3.58223L4.77937 1.47798C4.67917 0.634614 3.96941 0 3.11769 0H1.6731C0.729534 0 -0.0553839 0.784917 0.00306742 1.72849C0.445627 8.85955 6.14881 14.5544 13.2715 14.9969C14.2151 15.0554 15 14.2705 15 13.3269V11.8823C15.0084 11.0389 14.3737 10.3292 13.5304 10.229Z" fill="#007C8F"/>
</svg>
