<svg width="29" height="29" viewBox="0 0 29 29" fill="none" xmlns="http://www.w3.org/2000/svg">
<path d="M2.91269 22.003C3.29887 22.3895 3.92529 22.3896 4.31164 22.0033C4.66782 21.6471 5.1509 21.4471 5.65461 21.4471C6.15832 21.4471 6.6414 21.6471 6.99758 22.0033C7.35376 22.3595 7.55386 22.8425 7.55386 23.3462C7.55386 23.8499 7.35376 24.3329 6.99758 24.6891C6.6112 25.0754 6.6112 25.7019 6.99758 26.0882L8.52743 27.618C9.25689 28.3474 9.62162 28.7121 10.0343 28.8678C10.4998 29.0434 11.0134 29.0434 11.4789 28.8678C11.8916 28.7121 12.2564 28.3474 12.9858 27.618L16.1997 24.4043C16.3211 24.2829 16.4124 24.1348 16.4663 23.9718C16.5757 23.6414 16.8349 23.3821 17.1654 23.2728C17.3284 23.2189 17.4765 23.1276 17.5979 23.0062L27.6165 12.9882C28.3473 12.2575 28.7127 11.8921 28.8684 11.4786C29.0433 11.0138 29.0433 10.5013 28.8684 10.0365C28.7127 9.62301 28.3473 9.25766 27.6165 8.52695L26.0857 6.9962C25.6993 6.60983 25.0728 6.60983 24.6864 6.9962C24.3303 7.35236 23.8472 7.55244 23.3435 7.55244C22.8398 7.55244 22.3567 7.35236 22.0005 6.9962C21.6443 6.64005 21.4442 6.15699 21.4442 5.65331C21.4442 5.14963 21.6443 4.66658 22.0005 4.31042C22.3869 3.92406 22.3869 3.29762 22.0005 2.91126L20.4707 1.38151C19.7412 0.652092 19.3765 0.287384 18.9638 0.131687C18.4982 -0.0439353 17.9847 -0.0439354 17.5192 0.131687C17.1065 0.287384 16.7417 0.652092 16.0123 1.38151L5.99398 11.3992C5.87259 11.5205 5.78129 11.6686 5.72736 11.8316C5.61802 12.1621 5.35874 12.4213 5.02827 12.5307C4.86529 12.5846 4.71718 12.6759 4.59579 12.7973L1.3825 16.0104C0.652034 16.7408 0.286801 17.106 0.131102 17.5194C-0.0438884 17.984 -0.0439978 18.4964 0.130791 18.9611C0.286315 19.3745 0.65139 19.7399 1.38154 20.4706L2.91269 22.003ZM16.2505 21.6563C16.6366 22.0425 16.6366 22.6687 16.2504 23.0549C15.8641 23.4411 15.238 23.4411 14.8517 23.0549L14.1403 22.3435C13.7539 21.9572 13.754 21.3307 14.1404 20.9445C14.5268 20.5584 15.1529 20.5585 15.5391 20.9448L16.2505 21.6563ZM13.5001 18.9063C13.8865 19.2927 13.8865 19.9192 13.5001 20.3055C13.1137 20.6919 12.4873 20.6919 12.1009 20.3055L11.4205 19.6252C11.0341 19.2388 11.0341 18.6123 11.4205 18.2259C11.8069 17.8396 12.4333 17.8396 12.8196 18.2259L13.5001 18.9063ZM10.7785 16.1847C11.1648 16.5711 11.1648 17.1975 10.7784 17.5839C10.392 17.9703 9.76551 17.9703 9.37911 17.5839L8.69739 16.9022C8.31149 16.5163 8.31084 15.8909 8.69595 15.5042C9.0822 15.1164 9.7099 15.1158 10.0969 15.5029L10.7785 16.1847ZM5.94579 12.7522C6.33205 12.3658 6.95844 12.3657 7.34479 12.752L8.05625 13.4634C8.44251 13.8497 8.44258 14.4759 8.05641 14.8622C7.67015 15.2486 7.04376 15.2487 6.65741 14.8624L5.94595 14.151C5.55969 13.7647 5.55962 13.1385 5.94579 12.7522Z" fill="#2D3E50"/>
<g clip-path="url(#clip0_4072_1720)">
<path d="M19.7784 10.5996L18.3023 10.385L17.6424 9.04739C17.6244 9.01077 17.5947 8.98112 17.5581 8.9631C17.4663 8.91775 17.3546 8.95554 17.3087 9.04739L16.6489 10.385L15.1727 10.5996C15.132 10.6054 15.0948 10.6246 15.0664 10.6536C15.0319 10.689 15.0129 10.7366 15.0136 10.786C15.0142 10.8354 15.0345 10.8825 15.0698 10.917L16.1378 11.9581L15.8855 13.4283C15.8796 13.4625 15.8834 13.4977 15.8964 13.5299C15.9095 13.562 15.9313 13.5899 15.9594 13.6103C15.9875 13.6307 16.0207 13.6428 16.0553 13.6453C16.09 13.6477 16.1246 13.6405 16.1553 13.6243L17.4756 12.9301L18.7959 13.6243C18.8319 13.6434 18.8738 13.6498 18.9139 13.6429C19.015 13.6254 19.0831 13.5295 19.0656 13.4283L18.8133 11.9581L19.8813 10.917C19.9104 10.8885 19.9295 10.8513 19.9354 10.8106C19.9511 10.7089 19.8801 10.6147 19.7784 10.5996Z" fill="white"/>
</g>
<defs>
<clipPath id="clip0_4072_1720">
<rect width="5.81855" height="5.81818" fill="white" transform="translate(14.499 8.54686) scale(1.02315)"/>
</clipPath>
</defs>
</svg>
