<svg width="24" height="24" viewBox="0 0 24 24" fill="none" xmlns="http://www.w3.org/2000/svg">
<path d="M12.7031 3.0625H11.2969C11.1573 3.0625 10.9608 3.09773 10.8027 3.25582C10.6446 3.41391 10.6094 3.61043 10.6094 3.75V20.25C10.6094 20.3896 10.6446 20.5861 10.8027 20.7442C10.9608 20.9023 11.1573 20.9375 11.2969 20.9375H12.7031C12.8427 20.9375 13.0392 20.9023 13.1973 20.7442C13.3554 20.5861 13.3906 20.3896 13.3906 20.25V3.75C13.3906 3.61043 13.3554 3.41391 13.1973 3.25582C13.0392 3.09773 12.8427 3.0625 12.7031 3.0625Z" fill="white" stroke="white"/>
<path d="M19.875 10.6094H4.125C3.98543 10.6094 3.78891 10.6446 3.63082 10.8027C3.47273 10.9608 3.4375 11.1573 3.4375 11.2969V12.7031C3.4375 12.8427 3.47273 13.0392 3.63082 13.1973C3.78891 13.3554 3.98543 13.3906 4.125 13.3906H19.875C20.0146 13.3906 20.2111 13.3554 20.3692 13.1973C20.5273 13.0392 20.5625 12.8427 20.5625 12.7031V11.2969C20.5625 11.1573 20.5273 10.9608 20.3692 10.8027C20.2111 10.6446 20.0146 10.6094 19.875 10.6094Z" fill="white" stroke="white"/>
</svg>
