<svg width="30" height="30" viewBox="0 0 30 30" fill="none" xmlns="http://www.w3.org/2000/svg">
<path d="M0 7.5V0H7.5V3H3V7.5H0ZM0 30V22.5H3V27H7.5V30H0ZM22.5 30V27H27V22.5H30V30H22.5ZM27 7.5V3H22.5V0H30V7.5H27ZM23.25 23.25H25.5V25.5H23.25V23.25ZM23.25 18.75H25.5V21H23.25V18.75ZM21 21H23.25V23.25H21V21ZM18.75 23.25H21V25.5H18.75V23.25ZM16.5 21H18.75V23.25H16.5V21ZM21 16.5H23.25V18.75H21V16.5ZM18.75 18.75H21V21H18.75V18.75ZM16.5 16.5H18.75V18.75H16.5V16.5ZM25.5 4.5V13.5H16.5V4.5H25.5ZM13.5 16.5V25.5H4.5V16.5H13.5ZM13.5 4.5V13.5H4.5V4.5H13.5ZM11.25 23.25V18.75H6.75V23.25H11.25ZM11.25 11.25V6.75H6.75V11.25H11.25ZM23.25 11.25V6.75H18.75V11.25H23.25Z" fill="#2D3E50"/>
</svg>
