<svg width="25" height="23" viewBox="0 0 25 23" fill="none" xmlns="http://www.w3.org/2000/svg">
<path d="M21.4317 13.0804V21.5764C21.4317 21.8832 21.3335 22.1487 21.1371 22.3729C20.9407 22.5971 20.7081 22.7092 20.4393 22.7092H14.4848V15.9124H10.5151V22.7092H4.56063C4.29185 22.7092 4.05926 22.5971 3.86284 22.3729C3.66642 22.1487 3.56822 21.8832 3.56822 21.5764V13.0804C3.56822 13.0686 3.5708 13.0509 3.57597 13.0273C3.58114 13.0037 3.58372 12.986 3.58372 12.9742L12.5 4.58433L21.4162 12.9742C21.4265 12.9978 21.4317 13.0332 21.4317 13.0804ZM24.8896 11.8591L23.9282 13.1689C23.8455 13.2751 23.737 13.34 23.6026 13.3636H23.5561C23.4217 13.3636 23.3132 13.3223 23.2305 13.2397L12.5 3.02672L1.76946 13.2397C1.64541 13.3341 1.52136 13.3754 1.39731 13.3636C1.26292 13.34 1.15437 13.2751 1.07167 13.1689L0.110268 11.8591C0.0275671 11.7411 -0.00861472 11.6024 0.00172294 11.4431C0.0120606 11.2838 0.0689178 11.157 0.172294 11.0626L11.3215 0.460203C11.6523 0.153401 12.0451 0 12.5 0C12.9548 0 13.3476 0.153401 13.6785 0.460203L17.462 4.07102V0.619503C17.462 0.454303 17.5086 0.318602 17.6016 0.212401C17.6946 0.106201 17.8135 0.0531003 17.9582 0.0531003H20.9355C21.0802 0.0531003 21.1991 0.106201 21.2921 0.212401C21.3852 0.318602 21.4317 0.454303 21.4317 0.619503V7.84114L24.8276 11.0626C24.931 11.157 24.9879 11.2838 24.9982 11.4431C25.0085 11.6024 24.9723 11.7411 24.8896 11.8591Z" fill="#7D98B6"/>
</svg>
