<svg width="30" height="25" viewBox="0 0 30 25" fill="none" xmlns="http://www.w3.org/2000/svg">
<path d="M22.5 5H7.5C6.83696 5 6.20107 5.26339 5.73223 5.73223C5.26339 6.20107 5 6.83696 5 7.5V17.5C5 18.163 5.26339 18.7989 5.73223 19.2678C6.20107 19.7366 6.83696 20 7.5 20H22.5C23.163 20 23.7989 19.7366 24.2678 19.2678C24.7366 18.7989 25 18.163 25 17.5V7.5C25 6.83696 24.7366 6.20107 24.2678 5.73223C23.7989 5.26339 23.163 5 22.5 5ZM22.5 12.5H7.5V8.75H22.5V12.5ZM2.5 2.5H7.5V0H2.5C1.83696 0 1.20107 0.263392 0.732233 0.732233C0.263392 1.20107 0 1.83696 0 2.5L0 7.5H2.5V2.5ZM27.5 0H22.5V2.5H27.5V7.5H30V2.5C30 1.83696 29.7366 1.20107 29.2678 0.732233C28.7989 0.263392 28.163 0 27.5 0ZM2.5 17.5H0V22.5C0 23.163 0.263392 23.7989 0.732233 24.2678C1.20107 24.7366 1.83696 25 2.5 25H7.5V22.5H2.5V17.5ZM27.5 22.5H22.5V25H27.5C28.163 25 28.7989 24.7366 29.2678 24.2678C29.7366 23.7989 30 23.163 30 22.5V17.5H27.5V22.5Z" fill="#2D3E50"/>
</svg>
