<svg width="20" height="11" viewBox="0 0 20 11" fill="none" xmlns="http://www.w3.org/2000/svg">
<path fill-rule="evenodd" clip-rule="evenodd" d="M18.8236 0H17.6471C16.9974 0 16.4707 0.461501 16.4707 1.03079V9.96431C16.4707 10.5336 16.9974 10.9951 17.6471 10.9951H18.8236C19.4734 10.9951 20.0001 10.5336 20.0001 9.96431V1.03079C20.0001 0.461501 19.4734 0 18.8236 0ZM12.1569 2.40518H13.3334C13.9831 2.40518 14.5099 2.86668 14.5099 3.43597V9.96431C14.5099 10.5336 13.9831 10.9951 13.3334 10.9951H12.1569C11.5072 10.9951 10.9804 10.5336 10.9804 9.96431V3.43597C10.9804 2.86668 11.5072 2.40518 12.1569 2.40518ZM7.84317 4.81035H6.6667C6.01695 4.81035 5.49023 5.27185 5.49023 5.84114V9.96431C5.49023 10.5336 6.01695 10.9951 6.6667 10.9951H7.84317C8.49291 10.9951 9.01964 10.5336 9.01964 9.96431V5.84114C9.01964 5.27185 8.49291 4.81035 7.84317 4.81035ZM2.35296 6.87193H1.17648C0.526728 6.87193 0 7.33344 0 7.90273V9.96431C0 10.5336 0.526728 10.9951 1.17648 10.9951H2.35296C3.00271 10.9951 3.52944 10.5336 3.52944 9.96431V7.90273C3.52944 7.33344 3.00271 6.87193 2.35296 6.87193Z" fill="white"/>
</svg>
